<svg xmlns="http://www.w3.org/2000/svg" viewBox="0 0 251.95 251.95"><defs><style>.cls-1{fill:#121212;}.cls-2{fill:#1f1f1f;}.cls-3{fill:#393939;}</style></defs><g id="Ebene_2" data-name="Ebene 2"><g id="pattern"><rect class="cls-1" width="251.95" height="251.95"/><path class="cls-2" d="M23.58,239.82a17,17,0,0,0-11.65-2.46,10.61,10.61,0,0,0-.39,2.86,7.23,7.23,0,0,0,0,.93A13.34,13.34,0,0,1,27,249.69a10.52,10.52,0,0,0,3-2.31,16.89,16.89,0,0,0-6.45-7.56"/><path class="cls-2" d="M25.43,236.9A20.25,20.25,0,0,1,32.14,244a10.68,10.68,0,0,0,.68-3.75V225.28H22.15v4.29a10.58,10.58,0,0,0-8.46,4.19,20.29,20.29,0,0,1,11.74,3.14"/><path class="cls-2" d="M19.76,245.83a10,10,0,0,0-7.36-1.36,10.72,10.72,0,0,0,3.2,4.13,2.74,2.74,0,0,1,2.25.48h0a2.8,2.8,0,0,1,.94,1.24,11,11,0,0,0,3.36.55,10.28,10.28,0,0,0,1.57-.12,9.92,9.92,0,0,0-4-4.92"/><path class="cls-3" d="M23.58,189.85a16.94,16.94,0,0,0-11.65-2.45,10.48,10.48,0,0,0-.39,2.85,7.23,7.23,0,0,0,0,.93A13.34,13.34,0,0,1,27,199.72a10.52,10.52,0,0,0,3-2.31,16.89,16.89,0,0,0-6.45-7.56"/><path class="cls-3" d="M25.43,186.93A20.25,20.25,0,0,1,32.14,194a10.68,10.68,0,0,0,.68-3.75V175.31H22.15v4.29a10.58,10.58,0,0,0-8.46,4.19,20.29,20.29,0,0,1,11.74,3.14"/><path class="cls-3" d="M19.76,195.86a10,10,0,0,0-7.36-1.36,10.72,10.72,0,0,0,3.2,4.13,2.74,2.74,0,0,1,2.25.48h0a2.8,2.8,0,0,1,.94,1.24,11,11,0,0,0,3.36.55,10.28,10.28,0,0,0,1.57-.12,9.92,9.92,0,0,0-4-4.92"/><path class="cls-2" d="M23.58,139.89a16.89,16.89,0,0,0-11.65-2.46,10.48,10.48,0,0,0-.39,2.85,7.23,7.23,0,0,0,0,.93A13.34,13.34,0,0,1,27,149.75a10.52,10.52,0,0,0,3-2.31,16.81,16.81,0,0,0-6.45-7.55"/><path class="cls-2" d="M25.43,137A20.14,20.14,0,0,1,32.14,144a10.68,10.68,0,0,0,.68-3.75V125.34H22.15v4.29a10.58,10.58,0,0,0-8.46,4.19A20.22,20.22,0,0,1,25.43,137"/><path class="cls-2" d="M19.76,145.89a10,10,0,0,0-7.36-1.36,10.72,10.72,0,0,0,3.2,4.13,2.74,2.74,0,0,1,2.25.48h0a2.8,2.8,0,0,1,.94,1.24,11,11,0,0,0,3.36.55,10.28,10.28,0,0,0,1.57-.12,9.92,9.92,0,0,0-4-4.92"/><path class="cls-3" d="M23.58,89.92a16.89,16.89,0,0,0-11.65-2.46,10.54,10.54,0,0,0-.39,2.85,7.23,7.23,0,0,0,0,.93A13.34,13.34,0,0,1,27,99.78a10.52,10.52,0,0,0,3-2.31,16.81,16.81,0,0,0-6.45-7.55"/><path class="cls-3" d="M25.43,87a20.14,20.14,0,0,1,6.71,7,10.68,10.68,0,0,0,.68-3.75V75.37H22.15v4.29a10.58,10.58,0,0,0-8.46,4.19A20.22,20.22,0,0,1,25.43,87"/><path class="cls-3" d="M19.76,95.92a10,10,0,0,0-7.36-1.36,10.72,10.72,0,0,0,3.2,4.13,2.74,2.74,0,0,1,2.25.48h0a2.8,2.8,0,0,1,.94,1.24,10.66,10.66,0,0,0,3.36.55,10.28,10.28,0,0,0,1.57-.12,9.92,9.92,0,0,0-4-4.92"/><path class="cls-2" d="M23.58,40a16.89,16.89,0,0,0-11.65-2.46,10.59,10.59,0,0,0-.39,2.85,7.23,7.23,0,0,0,0,.93A13.34,13.34,0,0,1,27,49.81a10.52,10.52,0,0,0,3-2.31A16.81,16.81,0,0,0,23.58,40"/><path class="cls-2" d="M25.43,37a20.14,20.14,0,0,1,6.71,7,10.68,10.68,0,0,0,.68-3.75V25.4H22.15v4.29a10.6,10.6,0,0,0-8.46,4.19A20.22,20.22,0,0,1,25.43,37"/><path class="cls-2" d="M19.76,46a10,10,0,0,0-7.36-1.36,10.72,10.72,0,0,0,3.2,4.13,2.74,2.74,0,0,1,2.25.48h0a2.8,2.8,0,0,1,.94,1.24,10.66,10.66,0,0,0,3.36.55,10.28,10.28,0,0,0,1.57-.12,10,10,0,0,0-4-4.92"/><path class="cls-2" d="M65.33,215.82a17,17,0,0,0-11.66-2.46,10.61,10.61,0,0,0-.39,2.86,5.8,5.8,0,0,0,0,.93,13.33,13.33,0,0,1,15.41,8.54,10.52,10.52,0,0,0,3-2.31,16.86,16.86,0,0,0-6.44-7.56"/><path class="cls-2" d="M67.17,212.9A20.08,20.08,0,0,1,73.88,220a10.68,10.68,0,0,0,.68-3.75V201.27H63.9v4.29a10.63,10.63,0,0,0-8.47,4.2,20.29,20.29,0,0,1,11.74,3.14"/><path class="cls-2" d="M61.5,221.83a10,10,0,0,0-7.36-1.36,10.72,10.72,0,0,0,3.2,4.13,2.76,2.76,0,0,1,2.26.48h0a2.67,2.67,0,0,1,.93,1.24,10.75,10.75,0,0,0,3.37.54,10.36,10.36,0,0,0,1.57-.11,9.94,9.94,0,0,0-4-4.92"/><path class="cls-3" d="M65.33,165.85a17,17,0,0,0-11.66-2.46,10.61,10.61,0,0,0-.39,2.86,5.8,5.8,0,0,0,0,.93,13.33,13.33,0,0,1,15.41,8.54,10.52,10.52,0,0,0,3-2.31,16.86,16.86,0,0,0-6.44-7.56"/><path class="cls-3" d="M67.17,162.93A20.08,20.08,0,0,1,73.88,170a10.68,10.68,0,0,0,.68-3.75V151.3H63.9v4.29a10.63,10.63,0,0,0-8.47,4.2,20.29,20.29,0,0,1,11.74,3.14"/><path class="cls-3" d="M61.5,171.86a10,10,0,0,0-7.36-1.36,10.72,10.72,0,0,0,3.2,4.13,2.76,2.76,0,0,1,2.26.48h0a2.67,2.67,0,0,1,.93,1.24,10.75,10.75,0,0,0,3.37.54,9.21,9.21,0,0,0,1.57-.11,9.94,9.94,0,0,0-4-4.92"/><path class="cls-2" d="M65.33,115.88a17,17,0,0,0-11.66-2.46,10.61,10.61,0,0,0-.39,2.86,5.8,5.8,0,0,0,0,.93,13.33,13.33,0,0,1,15.41,8.54,10.52,10.52,0,0,0,3-2.31,16.86,16.86,0,0,0-6.44-7.56"/><path class="cls-2" d="M67.17,113A20.08,20.08,0,0,1,73.88,120a10.68,10.68,0,0,0,.68-3.75V101.33H63.9v4.29a10.63,10.63,0,0,0-8.47,4.2A20.29,20.29,0,0,1,67.17,113"/><path class="cls-2" d="M61.5,121.89a10,10,0,0,0-7.36-1.36,10.72,10.72,0,0,0,3.2,4.13,2.76,2.76,0,0,1,2.26.48h0a2.67,2.67,0,0,1,.93,1.24,10.75,10.75,0,0,0,3.37.54,9.21,9.21,0,0,0,1.57-.11,9.94,9.94,0,0,0-4-4.92"/><path class="cls-3" d="M65.33,65.91a17,17,0,0,0-11.66-2.46,10.61,10.61,0,0,0-.39,2.86,5.8,5.8,0,0,0,0,.93,13.33,13.33,0,0,1,15.41,8.54,10.52,10.52,0,0,0,3-2.31,16.86,16.86,0,0,0-6.44-7.56"/><path class="cls-3" d="M67.17,63a20.17,20.17,0,0,1,6.71,7.06,10.68,10.68,0,0,0,.68-3.75V51.36H63.9v4.29a10.63,10.63,0,0,0-8.47,4.2A20.29,20.29,0,0,1,67.17,63"/><path class="cls-3" d="M61.5,71.92a10,10,0,0,0-7.36-1.36,10.72,10.72,0,0,0,3.2,4.13,2.76,2.76,0,0,1,2.26.48h0a2.67,2.67,0,0,1,.93,1.24A10.75,10.75,0,0,0,63.9,77a9.21,9.21,0,0,0,1.57-.11,9.94,9.94,0,0,0-4-4.92"/><path class="cls-2" d="M65.33,15.94a17,17,0,0,0-11.66-2.46,10.61,10.61,0,0,0-.39,2.86,5.8,5.8,0,0,0,0,.93,13.33,13.33,0,0,1,15.41,8.54,10.52,10.52,0,0,0,3-2.31,16.86,16.86,0,0,0-6.44-7.56"/><path class="cls-2" d="M67.17,13a20.17,20.17,0,0,1,6.71,7.06,10.68,10.68,0,0,0,.68-3.75V1.39H63.9v4.3a10.59,10.59,0,0,0-8.47,4.19A20.29,20.29,0,0,1,67.17,13"/><path class="cls-2" d="M61.5,22a10,10,0,0,0-7.36-1.36,10.72,10.72,0,0,0,3.2,4.13,2.76,2.76,0,0,1,2.26.48h0a2.73,2.73,0,0,1,.93,1.24A10.75,10.75,0,0,0,63.9,27a9.21,9.21,0,0,0,1.57-.11,9.94,9.94,0,0,0-4-4.92"/><path class="cls-2" d="M107.07,239.62a16.89,16.89,0,0,0-11.65-2.46A10.59,10.59,0,0,0,95,240a7.23,7.23,0,0,0,0,.93,13.34,13.34,0,0,1,15.42,8.54,10.52,10.52,0,0,0,3-2.31,16.81,16.81,0,0,0-6.45-7.55"/><path class="cls-2" d="M108.92,236.7a20.23,20.23,0,0,1,6.71,7.05,10.6,10.6,0,0,0,.68-3.75V225.07H105.64v4.29a10.6,10.6,0,0,0-8.46,4.19,20.22,20.22,0,0,1,11.74,3.15"/><path class="cls-2" d="M103.25,245.62a10,10,0,0,0-7.36-1.36,10.72,10.72,0,0,0,3.2,4.13,2.78,2.78,0,0,1,2.25.48h0a2.8,2.8,0,0,1,.94,1.24,10.66,10.66,0,0,0,3.36.55,10.28,10.28,0,0,0,1.57-.12,10,10,0,0,0-4-4.92"/><path class="cls-2" d="M107.07,189.65a16.89,16.89,0,0,0-11.65-2.46A10.59,10.59,0,0,0,95,190a7.23,7.23,0,0,0,0,.93,13.34,13.34,0,0,1,15.42,8.54,10.52,10.52,0,0,0,3-2.31,16.86,16.86,0,0,0-6.45-7.55"/><path class="cls-2" d="M108.92,186.73a20.23,20.23,0,0,1,6.71,7.05,10.58,10.58,0,0,0,.68-3.74V175.1H105.64v4.29a10.6,10.6,0,0,0-8.46,4.19,20.22,20.22,0,0,1,11.74,3.15"/><path class="cls-2" d="M103.25,195.65a10,10,0,0,0-7.36-1.36,10.72,10.72,0,0,0,3.2,4.13,2.78,2.78,0,0,1,2.25.48h0a2.8,2.8,0,0,1,.94,1.24,10.66,10.66,0,0,0,3.36.55,10.28,10.28,0,0,0,1.57-.12,10,10,0,0,0-4-4.92"/><path class="cls-3" d="M107.07,139.68a16.89,16.89,0,0,0-11.65-2.46,10.59,10.59,0,0,0-.39,2.85,7.23,7.23,0,0,0,0,.93,13.35,13.35,0,0,1,15.42,8.54,10.52,10.52,0,0,0,3-2.31,16.86,16.86,0,0,0-6.45-7.55"/><path class="cls-3" d="M108.92,136.76a20.23,20.23,0,0,1,6.71,7.05,10.58,10.58,0,0,0,.68-3.74V125.13H105.64v4.29a10.6,10.6,0,0,0-8.46,4.19,20.22,20.22,0,0,1,11.74,3.15"/><path class="cls-3" d="M103.25,145.68a10,10,0,0,0-7.36-1.36,10.72,10.72,0,0,0,3.2,4.13,2.78,2.78,0,0,1,2.25.48h0a2.8,2.8,0,0,1,.94,1.24,10.66,10.66,0,0,0,3.36.55,10.28,10.28,0,0,0,1.57-.12,10,10,0,0,0-4-4.92"/><path class="cls-2" d="M107.07,89.71a16.94,16.94,0,0,0-11.65-2.46A10.59,10.59,0,0,0,95,90.1a7.23,7.23,0,0,0,0,.93,13.35,13.35,0,0,1,15.42,8.54,10.66,10.66,0,0,0,3-2.3,16.83,16.83,0,0,0-6.45-7.56"/><path class="cls-2" d="M108.92,86.79a20.23,20.23,0,0,1,6.71,7,10.58,10.58,0,0,0,.68-3.74V75.16H105.64v4.29a10.6,10.6,0,0,0-8.46,4.19,20.22,20.22,0,0,1,11.74,3.15"/><path class="cls-2" d="M103.25,95.71a10,10,0,0,0-7.36-1.36,10.72,10.72,0,0,0,3.2,4.13,2.78,2.78,0,0,1,2.25.48h0a2.8,2.8,0,0,1,.94,1.24,10.66,10.66,0,0,0,3.36.55,11.72,11.72,0,0,0,1.57-.11,10,10,0,0,0-4-4.93"/><path class="cls-3" d="M107.07,39.74a16.94,16.94,0,0,0-11.65-2.46A10.59,10.59,0,0,0,95,40.13a7.23,7.23,0,0,0,0,.93,13.35,13.35,0,0,1,15.42,8.54,10.66,10.66,0,0,0,3-2.3,16.83,16.83,0,0,0-6.45-7.56"/><path class="cls-3" d="M108.92,36.82a20.23,20.23,0,0,1,6.71,7,10.58,10.58,0,0,0,.68-3.74V25.19H105.64v4.29a10.6,10.6,0,0,0-8.46,4.19,20.22,20.22,0,0,1,11.74,3.15"/><path class="cls-3" d="M103.25,45.74a10,10,0,0,0-7.36-1.36,10.72,10.72,0,0,0,3.2,4.13,2.78,2.78,0,0,1,2.25.48h0a2.8,2.8,0,0,1,.94,1.24,10.66,10.66,0,0,0,3.36.55,11.72,11.72,0,0,0,1.57-.11,10,10,0,0,0-4-4.93"/><path class="cls-2" d="M148.81,215.82a17,17,0,0,0-11.65-2.46,10.61,10.61,0,0,0-.39,2.86,5.8,5.8,0,0,0,0,.93,13.33,13.33,0,0,1,15.41,8.54,10.52,10.52,0,0,0,3-2.31,16.89,16.89,0,0,0-6.45-7.56"/><path class="cls-2" d="M150.66,212.9a20.17,20.17,0,0,1,6.71,7.06,10.68,10.68,0,0,0,.68-3.75V201.27H147.39v4.29a10.62,10.62,0,0,0-8.47,4.2,20.29,20.29,0,0,1,11.74,3.14"/><path class="cls-2" d="M145,221.83a10,10,0,0,0-7.36-1.36,10.72,10.72,0,0,0,3.2,4.13,2.76,2.76,0,0,1,2.26.48h0a2.74,2.74,0,0,1,.93,1.24,10.71,10.71,0,0,0,3.37.54,10.36,10.36,0,0,0,1.57-.11,9.94,9.94,0,0,0-4-4.92"/><path class="cls-2" d="M148.81,165.85a17,17,0,0,0-11.65-2.46,10.61,10.61,0,0,0-.39,2.86,5.8,5.8,0,0,0,0,.93,13.33,13.33,0,0,1,15.41,8.54,10.52,10.52,0,0,0,3-2.31,16.89,16.89,0,0,0-6.45-7.56"/><path class="cls-2" d="M150.66,162.93a20.17,20.17,0,0,1,6.71,7.06,10.68,10.68,0,0,0,.68-3.75V151.3H147.39v4.29a10.62,10.62,0,0,0-8.47,4.2,20.29,20.29,0,0,1,11.74,3.14"/><path class="cls-2" d="M145,171.86a10,10,0,0,0-7.36-1.36,10.72,10.72,0,0,0,3.2,4.13,2.76,2.76,0,0,1,2.26.48h0a2.74,2.74,0,0,1,.93,1.24,10.71,10.71,0,0,0,3.37.54,9.21,9.21,0,0,0,1.57-.11,9.94,9.94,0,0,0-4-4.92"/><path class="cls-2" d="M148.81,115.88a17,17,0,0,0-11.65-2.46,10.61,10.61,0,0,0-.39,2.86,5.8,5.8,0,0,0,0,.93,13.33,13.33,0,0,1,15.41,8.54,10.52,10.52,0,0,0,3-2.31,16.89,16.89,0,0,0-6.45-7.56"/><path class="cls-2" d="M150.66,113a20.17,20.17,0,0,1,6.71,7.06,10.68,10.68,0,0,0,.68-3.75V101.33H147.39v4.29a10.62,10.62,0,0,0-8.47,4.2A20.29,20.29,0,0,1,150.66,113"/><path class="cls-2" d="M145,121.89a10,10,0,0,0-7.36-1.36,10.72,10.72,0,0,0,3.2,4.13,2.76,2.76,0,0,1,2.26.48h0a2.74,2.74,0,0,1,.93,1.24,10.71,10.71,0,0,0,3.37.54,9.21,9.21,0,0,0,1.57-.11,9.94,9.94,0,0,0-4-4.92"/><path class="cls-2" d="M148.81,65.91a17,17,0,0,0-11.65-2.46,10.61,10.61,0,0,0-.39,2.86,5.8,5.8,0,0,0,0,.93,13.33,13.33,0,0,1,15.41,8.54,10.52,10.52,0,0,0,3-2.31,16.89,16.89,0,0,0-6.45-7.56"/><path class="cls-2" d="M150.66,63a20.25,20.25,0,0,1,6.71,7.06,10.68,10.68,0,0,0,.68-3.75V51.36H147.39v4.29a10.62,10.62,0,0,0-8.47,4.2A20.29,20.29,0,0,1,150.66,63"/><path class="cls-2" d="M145,71.92a10,10,0,0,0-7.36-1.36,10.72,10.72,0,0,0,3.2,4.13,2.76,2.76,0,0,1,2.26.48h0a2.74,2.74,0,0,1,.93,1.24,10.71,10.71,0,0,0,3.37.54,9.21,9.21,0,0,0,1.57-.11,9.94,9.94,0,0,0-4-4.92"/><path class="cls-3" d="M148.81,15.94a17,17,0,0,0-11.65-2.46,10.61,10.61,0,0,0-.39,2.86,5.8,5.8,0,0,0,0,.93,13.33,13.33,0,0,1,15.41,8.54,10.52,10.52,0,0,0,3-2.31,16.89,16.89,0,0,0-6.45-7.56"/><path class="cls-3" d="M150.66,13a20.25,20.25,0,0,1,6.71,7.06,10.68,10.68,0,0,0,.68-3.75V1.39H147.39v4.3a10.58,10.58,0,0,0-8.47,4.19A20.29,20.29,0,0,1,150.66,13"/><path class="cls-3" d="M145,22a10,10,0,0,0-7.36-1.36,10.72,10.72,0,0,0,3.2,4.13,2.76,2.76,0,0,1,2.26.48h0a2.8,2.8,0,0,1,.93,1.24,10.71,10.71,0,0,0,3.37.54,9.21,9.21,0,0,0,1.57-.11A9.94,9.94,0,0,0,145,22"/><path class="cls-3" d="M190.56,239.62a16.89,16.89,0,0,0-11.65-2.46,10.59,10.59,0,0,0-.39,2.85,7.23,7.23,0,0,0,0,.93A13.34,13.34,0,0,1,194,249.48a10.52,10.52,0,0,0,3-2.31,16.81,16.81,0,0,0-6.45-7.55"/><path class="cls-3" d="M192.41,236.7a20.2,20.2,0,0,1,6.7,7.05,10.39,10.39,0,0,0,.69-3.75V225.07H189.13v4.29a10.64,10.64,0,0,0-8.47,4.19,20.23,20.23,0,0,1,11.75,3.15"/><path class="cls-3" d="M186.73,245.62a10,10,0,0,0-7.35-1.36,10.53,10.53,0,0,0,3.2,4.13,2.78,2.78,0,0,1,2.25.48h0a2.88,2.88,0,0,1,.94,1.24,10.66,10.66,0,0,0,3.36.55,10.28,10.28,0,0,0,1.57-.12,9.93,9.93,0,0,0-4-4.92"/><path class="cls-2" d="M190.56,189.65a16.89,16.89,0,0,0-11.65-2.46,10.59,10.59,0,0,0-.39,2.85,7.23,7.23,0,0,0,0,.93A13.34,13.34,0,0,1,194,199.51a10.52,10.52,0,0,0,3-2.31,16.86,16.86,0,0,0-6.45-7.55"/><path class="cls-2" d="M192.41,186.73a20.2,20.2,0,0,1,6.7,7.05,10.37,10.37,0,0,0,.69-3.74V175.1H189.13v4.29a10.64,10.64,0,0,0-8.47,4.19,20.23,20.23,0,0,1,11.75,3.15"/><path class="cls-2" d="M186.73,195.65a10,10,0,0,0-7.35-1.36,10.53,10.53,0,0,0,3.2,4.13,2.78,2.78,0,0,1,2.25.48h0a2.88,2.88,0,0,1,.94,1.24,10.66,10.66,0,0,0,3.36.55,10.28,10.28,0,0,0,1.57-.12,9.93,9.93,0,0,0-4-4.92"/><path class="cls-3" d="M190.56,139.68a16.89,16.89,0,0,0-11.65-2.46,10.59,10.59,0,0,0-.39,2.85,7.23,7.23,0,0,0,0,.93A13.35,13.35,0,0,1,194,149.54a10.52,10.52,0,0,0,3-2.31,16.86,16.86,0,0,0-6.45-7.55"/><path class="cls-3" d="M192.41,136.76a20.2,20.2,0,0,1,6.7,7.05,10.37,10.37,0,0,0,.69-3.74V125.13H189.13v4.29a10.64,10.64,0,0,0-8.47,4.19,20.23,20.23,0,0,1,11.75,3.15"/><path class="cls-3" d="M186.73,145.68a10,10,0,0,0-7.35-1.36,10.53,10.53,0,0,0,3.2,4.13,2.78,2.78,0,0,1,2.25.48h0a2.88,2.88,0,0,1,.94,1.24,10.66,10.66,0,0,0,3.36.55,10.28,10.28,0,0,0,1.57-.12,9.93,9.93,0,0,0-4-4.92"/><path class="cls-2" d="M190.56,89.71a16.94,16.94,0,0,0-11.65-2.46,10.59,10.59,0,0,0-.39,2.85,7.23,7.23,0,0,0,0,.93A13.35,13.35,0,0,1,194,99.57a10.66,10.66,0,0,0,3-2.3,16.83,16.83,0,0,0-6.45-7.56"/><path class="cls-2" d="M192.41,86.79a20.2,20.2,0,0,1,6.7,7,10.37,10.37,0,0,0,.69-3.74V75.16H189.13v4.29a10.64,10.64,0,0,0-8.47,4.19,20.23,20.23,0,0,1,11.75,3.15"/><path class="cls-2" d="M186.73,95.71a10,10,0,0,0-7.35-1.36,10.53,10.53,0,0,0,3.2,4.13,2.78,2.78,0,0,1,2.25.48h0a2.88,2.88,0,0,1,.94,1.24,10.66,10.66,0,0,0,3.36.55,11.72,11.72,0,0,0,1.57-.11,10,10,0,0,0-4-4.93"/><path class="cls-2" d="M190.56,39.74a16.94,16.94,0,0,0-11.65-2.46,10.59,10.59,0,0,0-.39,2.85,7.23,7.23,0,0,0,0,.93A13.35,13.35,0,0,1,194,49.6a10.66,10.66,0,0,0,3-2.3,16.83,16.83,0,0,0-6.45-7.56"/><path class="cls-2" d="M192.41,36.82a20.2,20.2,0,0,1,6.7,7,10.37,10.37,0,0,0,.69-3.74V25.19H189.13v4.29a10.64,10.64,0,0,0-8.47,4.19,20.23,20.23,0,0,1,11.75,3.15"/><path class="cls-2" d="M186.73,45.74a10,10,0,0,0-7.35-1.36,10.53,10.53,0,0,0,3.2,4.13,2.78,2.78,0,0,1,2.25.48h0a2.88,2.88,0,0,1,.94,1.24,10.66,10.66,0,0,0,3.36.55,11.72,11.72,0,0,0,1.57-.11,10,10,0,0,0-4-4.93"/><path class="cls-3" d="M232.3,215.82a17,17,0,0,0-11.65-2.46,10.61,10.61,0,0,0-.39,2.86,5.8,5.8,0,0,0,.05.93,13.33,13.33,0,0,1,15.41,8.54,10.52,10.52,0,0,0,3-2.31,16.89,16.89,0,0,0-6.45-7.56"/><path class="cls-3" d="M234.15,212.9a20.17,20.17,0,0,1,6.71,7.06,10.68,10.68,0,0,0,.68-3.75V201.27H230.88v4.29a10.62,10.62,0,0,0-8.47,4.2,20.29,20.29,0,0,1,11.74,3.14"/><path class="cls-3" d="M228.48,221.83a10,10,0,0,0-7.36-1.36,10.72,10.72,0,0,0,3.2,4.13,2.76,2.76,0,0,1,2.26.48h0a2.74,2.74,0,0,1,.93,1.24,10.71,10.71,0,0,0,3.37.54,10.36,10.36,0,0,0,1.57-.11,10,10,0,0,0-4-4.92"/><path class="cls-2" d="M232.3,165.85a17,17,0,0,0-11.65-2.46,10.61,10.61,0,0,0-.39,2.86,5.8,5.8,0,0,0,.05.93,13.33,13.33,0,0,1,15.41,8.54,10.52,10.52,0,0,0,3-2.31,16.89,16.89,0,0,0-6.45-7.56"/><path class="cls-2" d="M234.15,162.93a20.17,20.17,0,0,1,6.71,7.06,10.68,10.68,0,0,0,.68-3.75V151.3H230.88v4.29a10.62,10.62,0,0,0-8.47,4.2,20.29,20.29,0,0,1,11.74,3.14"/><path class="cls-2" d="M228.48,171.86a10,10,0,0,0-7.36-1.36,10.72,10.72,0,0,0,3.2,4.13,2.76,2.76,0,0,1,2.26.48h0a2.74,2.74,0,0,1,.93,1.24,10.71,10.71,0,0,0,3.37.54,9.21,9.21,0,0,0,1.57-.11,10,10,0,0,0-4-4.92"/><path class="cls-3" d="M232.3,115.88a17,17,0,0,0-11.65-2.46,10.61,10.61,0,0,0-.39,2.86,5.8,5.8,0,0,0,.05.93,13.33,13.33,0,0,1,15.41,8.54,10.52,10.52,0,0,0,3-2.31,16.89,16.89,0,0,0-6.45-7.56"/><path class="cls-3" d="M234.15,113a20.17,20.17,0,0,1,6.71,7.06,10.68,10.68,0,0,0,.68-3.75V101.33H230.88v4.29a10.62,10.62,0,0,0-8.47,4.2A20.29,20.29,0,0,1,234.15,113"/><path class="cls-3" d="M228.48,121.89a10,10,0,0,0-7.36-1.36,10.72,10.72,0,0,0,3.2,4.13,2.76,2.76,0,0,1,2.26.48h0a2.74,2.74,0,0,1,.93,1.24,10.71,10.71,0,0,0,3.37.54,9.21,9.21,0,0,0,1.57-.11,10,10,0,0,0-4-4.92"/><path class="cls-2" d="M232.3,65.91a17,17,0,0,0-11.65-2.46,10.61,10.61,0,0,0-.39,2.86,5.8,5.8,0,0,0,.05.93,13.33,13.33,0,0,1,15.41,8.54,10.52,10.52,0,0,0,3-2.31,16.89,16.89,0,0,0-6.45-7.56"/><path class="cls-2" d="M234.15,63a20.25,20.25,0,0,1,6.71,7.06,10.68,10.68,0,0,0,.68-3.75V51.36H230.88v4.29a10.62,10.62,0,0,0-8.47,4.2A20.29,20.29,0,0,1,234.15,63"/><path class="cls-2" d="M228.48,71.92a10,10,0,0,0-7.36-1.36,10.72,10.72,0,0,0,3.2,4.13,2.76,2.76,0,0,1,2.26.48h0a2.74,2.74,0,0,1,.93,1.24,10.71,10.71,0,0,0,3.37.54,9.21,9.21,0,0,0,1.57-.11,10,10,0,0,0-4-4.92"/><path class="cls-2" d="M232.3,15.94a17,17,0,0,0-11.65-2.46,10.61,10.61,0,0,0-.39,2.86,5.8,5.8,0,0,0,.05.93,13.33,13.33,0,0,1,15.41,8.54,10.52,10.52,0,0,0,3-2.31,16.89,16.89,0,0,0-6.45-7.56"/><path class="cls-2" d="M234.15,13a20.25,20.25,0,0,1,6.71,7.06,10.68,10.68,0,0,0,.68-3.75V1.39H230.88v4.3a10.58,10.58,0,0,0-8.47,4.19A20.29,20.29,0,0,1,234.15,13"/><path class="cls-2" d="M228.48,22a10,10,0,0,0-7.36-1.36,10.72,10.72,0,0,0,3.2,4.13,2.76,2.76,0,0,1,2.26.48h0a2.8,2.8,0,0,1,.93,1.24,10.71,10.71,0,0,0,3.37.54,9.21,9.21,0,0,0,1.57-.11,10,10,0,0,0-4-4.92"/></g></g></svg>