<svg xmlns="http://www.w3.org/2000/svg" xmlns:xlink="http://www.w3.org/1999/xlink" width="48" height="48" viewBox="0 0 48 48">
  <defs>
    <clipPath id="clip-path">
      <rect id="Rechteck_2373" width="48" height="48" transform="translate(857 416)" fill="none" stroke="#FFB533" stroke-width="1"/>
    </clipPath>
  </defs>
  <g id="Gruppe_maskieren_17" transform="translate(-857 -416)" clip-path="url(#clip-path)">
    <g id="Gruppe_12104" transform="translate(1736.027 214.881) rotate(135)">
      <g id="Gruppe_12103" transform="translate(743.558 424)">
        <circle id="Ellipse_682" cx="8.547" cy="8.547" r="8.547" transform="translate(12.365 12.365)" fill="#FFB533"/>
        <g id="Ellipse_685" transform="translate(6.91 6.91)" fill="none" stroke="#FFB533" stroke-width="2">
          <circle cx="13.82" cy="13.82" r="13.82" stroke="none"/>
          <circle cx="13.82" cy="13.82" r="12.82" fill="none"/>
        </g>
        <g id="Ellipse_684" transform="translate(0 0)" fill="none" stroke="#FFB533" stroke-width="2">
          <circle cx="20.73" cy="20.73" r="20.73" stroke="none"/>
          <circle cx="20.73" cy="20.73" r="19.73" fill="none"/>
        </g>
      </g>
      <g id="wifi" transform="translate(760.341 472.256) rotate(-135)">
        <path id="Pfad_10582" d="M4.739,2.369A2.369,2.369,0,1,1,2.369,0,2.369,2.369,0,0,1,4.739,2.369Z" transform="translate(14.122 21.323)" fill="#FFB533"/>
        <path id="Pfad_10583" d="M0,2.645,1.675,4.319a7.071,7.071,0,0,1,9.741-.011l1.674-1.674A9.433,9.433,0,0,0,0,2.646Z" transform="translate(9.941 14.216)" fill="#FFB533"/>
        <path id="Pfad_10584" d="M0,4.73,1.662,6.4a13.967,13.967,0,0,1,19.629-.012l1.661-1.674A16.3,16.3,0,0,0,0,4.73Z" transform="translate(5.01 7.108)" fill="#FFB533"/>
        <path id="Pfad_10585" d="M32.983,6.8A23.4,23.4,0,0,0,0,6.8v.027L1.653,8.491A21.042,21.042,0,0,1,31.317,8.48L32.983,6.8Z" transform="translate(0)" fill="#FFB533"/>
      </g>
    </g>
  </g>
</svg>
