<svg xmlns="http://www.w3.org/2000/svg" xmlns:xlink="http://www.w3.org/1999/xlink" width="48" height="48"
     viewBox="0 0 48 48">
    <defs>
        <clipPath id="clip-path">
            <rect id="Rechteck_2375" width="48" height="48" transform="translate(908 457)" fill="none" stroke="#707070"
                  stroke-width="1"/>
        </clipPath>
    </defs>
    <g id="Gruppe_maskieren_19" transform="translate(-908 -457)" clip-path="url(#clip-path)">
        <g id="Gruppe_12106" transform="translate(1933.281 154.408) rotate(135)">
            <g id="Gruppe_12105" transform="translate(918.344 455.703)">
                <circle id="Ellipse_682" cx="3.623" cy="3.623" r="3.623" transform="translate(17.392 17.392)"
                        fill="#6f92f8"/>
                <g id="Ellipse_685" transform="translate(7.247 7.247)" fill="none" stroke="#6f92f8" stroke-width="1">
                    <circle cx="13.769" cy="13.769" r="13.769" stroke="none"/>
                    <circle cx="13.769" cy="13.769" r="13.269" fill="none"/>
                </g>
                <g id="Ellipse_684" transform="translate(0 0)" fill="none" stroke="#6f92f8" stroke-width="1">
                    <circle cx="21.015" cy="21.015" r="21.015" stroke="none"/>
                    <circle cx="21.015" cy="21.015" r="20.515" fill="none"/>
                </g>
            </g>
            <g id="wifi" transform="translate(933.61 501.688) rotate(-135)">
                <path id="Pfad_10582" d="M3.286,1.628A1.643,1.643,0,1,1,1.643,0,1.635,1.635,0,0,1,3.286,1.628Z"
                      transform="translate(11.951 19.616)" fill="#6f92f8"/>
                <path id="Pfad_10583"
                      d="M0,1.817l1.162,1.15A4.935,4.935,0,0,1,7.916,2.96L9.077,1.81A6.584,6.584,0,0,0,0,1.818Z"
                      transform="translate(9.05 13.014)" fill="#6f92f8"/>
                <path id="Pfad_10584"
                      d="M0,3.25,1.465,4.4a14.9,14.9,0,0,1,17.3-.008l1.464-1.15A17.385,17.385,0,0,0,0,3.25Z"
                      transform="translate(3.474 6.679)" fill="#6f92f8"/>
                <path id="Pfad_10585"
                      d="M27.187,4.673C19.648-1.558,7.538-1.558,0,4.673v.019L1.363,5.834a19.884,19.884,0,0,1,24.45-.008l1.374-1.152Z"
                      transform="translate(0 0)" fill="#6f92f8"/>
            </g>
        </g>
    </g>
</svg>
