<svg xmlns="http://www.w3.org/2000/svg" width="32" height="32" viewBox="0 0 32 32">
    <defs>
        <style>.b{fill:#f5f5f5;}.c{fill:#f4f4f4;}</style>
    </defs>
    <g transform="translate(1 2)">
        <path class="b"
              d="M12.943,6.43A4.618,4.618,0,0,0,9.09,8.479a4.081,4.081,0,0,0-.563,3.1,3.888,3.888,0,0,0,1.091,1.882,3.272,3.272,0,0,0,2.1.765,1.522,1.522,0,1,0-1.469-1.847l-.2-.079a1.223,1.223,0,0,1-.66-.88A3.281,3.281,0,0,1,9.811,9,3.773,3.773,0,0,1,12.943,7.31a4.073,4.073,0,0,1,3.905,4.257c0,3.1-1.926,5.937-6.861,10.08a.449.449,0,0,0-.053.625.431.431,0,0,0,.334.158.413.413,0,0,0,.281-.106c5.163-4.336,7.178-7.353,7.178-10.766A4.943,4.943,0,0,0,12.943,6.43Z"/>
        <path class="c" d="M22.371,13.16a1.082,1.082,0,1,0,.774.317A1.091,1.091,0,0,0,22.371,13.16Z"
              transform="translate(-1.547 -0.81)"/>
        <path class="b" d="M22.371,11.611a1.082,1.082,0,1,0-.774-.317A1.091,1.091,0,0,0,22.371,11.611Z"
              transform="translate(-1.547 -0.361)"/>
    </g>
</svg>