<svg xmlns="http://www.w3.org/2000/svg" xmlns:xlink="http://www.w3.org/1999/xlink" width="946" height="410" viewBox="0 0 946 410"><defs><style>.a{fill:none;}.b{clip-path:url(#a);}.c{fill:#7b7b7b;}</style><clipPath id="a"><rect class="a" width="946" height="410"/></clipPath></defs><g transform="translate(-366 -386)"><g class="b" transform="translate(366 386)"><g transform="translate(-366 -386)"><circle class="c" cx="2" cy="2" r="2" transform="translate(366 386)"/></g><g transform="translate(-330 -386)"><circle class="c" cx="2" cy="2" r="2" transform="translate(366 386)"/></g><g transform="translate(-294 -386)"><circle class="c" cx="2" cy="2" r="2" transform="translate(366 386)"/></g><g transform="translate(-258 -386)"><circle class="c" cx="2" cy="2" r="2" transform="translate(366 386)"/></g><g transform="translate(-222 -386)"><circle class="c" cx="2" cy="2" r="2" transform="translate(366 386)"/></g><g transform="translate(-186 -386)"><circle class="c" cx="2" cy="2" r="2" transform="translate(366 386)"/></g><g transform="translate(-150 -386)"><circle class="c" cx="2" cy="2" r="2" transform="translate(366 386)"/></g><g transform="translate(-114 -386)"><circle class="c" cx="2" cy="2" r="2" transform="translate(366 386)"/></g><g transform="translate(-78 -386)"><circle class="c" cx="2" cy="2" r="2" transform="translate(366 386)"/></g><g transform="translate(-42 -386)"><circle class="c" cx="2" cy="2" r="2" transform="translate(366 386)"/></g><g transform="translate(-6 -386)"><circle class="c" cx="2" cy="2" r="2" transform="translate(366 386)"/></g><g transform="translate(30 -386)"><circle class="c" cx="2" cy="2" r="2" transform="translate(366 386)"/></g><g transform="translate(66 -386)"><circle class="c" cx="2" cy="2" r="2" transform="translate(366 386)"/></g><g transform="translate(102 -386)"><circle class="c" cx="2" cy="2" r="2" transform="translate(366 386)"/></g><g transform="translate(138 -386)"><circle class="c" cx="2" cy="2" r="2" transform="translate(366 386)"/></g><g transform="translate(174 -386)"><circle class="c" cx="2" cy="2" r="2" transform="translate(366 386)"/></g><g transform="translate(210 -386)"><circle class="c" cx="2" cy="2" r="2" transform="translate(366 386)"/></g><g transform="translate(246 -386)"><circle class="c" cx="2" cy="2" r="2" transform="translate(366 386)"/></g><g transform="translate(282 -386)"><circle class="c" cx="2" cy="2" r="2" transform="translate(366 386)"/></g><g transform="translate(318 -386)"><circle class="c" cx="2" cy="2" r="2" transform="translate(366 386)"/></g><g transform="translate(354 -386)"><circle class="c" cx="2" cy="2" r="2" transform="translate(366 386)"/></g><g transform="translate(390 -386)"><circle class="c" cx="2" cy="2" r="2" transform="translate(366 386)"/></g><g transform="translate(426 -386)"><circle class="c" cx="2" cy="2" r="2" transform="translate(366 386)"/></g><g transform="translate(462 -386)"><circle class="c" cx="2" cy="2" r="2" transform="translate(366 386)"/></g><g transform="translate(498 -386)"><circle class="c" cx="2" cy="2" r="2" transform="translate(366 386)"/></g><g transform="translate(534 -386)"><circle class="c" cx="2" cy="2" r="2" transform="translate(366 386)"/></g><g transform="translate(570 -386)"><circle class="c" cx="2" cy="2" r="2" transform="translate(366 386)"/></g><g transform="translate(-366 -350)"><circle class="c" cx="2" cy="2" r="2" transform="translate(366 386)"/></g><g transform="translate(-330 -350)"><circle class="c" cx="2" cy="2" r="2" transform="translate(366 386)"/></g><g transform="translate(-294 -350)"><circle class="c" cx="2" cy="2" r="2" transform="translate(366 386)"/></g><g transform="translate(-258 -350)"><circle class="c" cx="2" cy="2" r="2" transform="translate(366 386)"/></g><g transform="translate(-222 -350)"><circle class="c" cx="2" cy="2" r="2" transform="translate(366 386)"/></g><g transform="translate(-186 -350)"><circle class="c" cx="2" cy="2" r="2" transform="translate(366 386)"/></g><g transform="translate(-150 -350)"><circle class="c" cx="2" cy="2" r="2" transform="translate(366 386)"/></g><g transform="translate(-114 -350)"><circle class="c" cx="2" cy="2" r="2" transform="translate(366 386)"/></g><g transform="translate(-78 -350)"><circle class="c" cx="2" cy="2" r="2" transform="translate(366 386)"/></g><g transform="translate(-42 -350)"><circle class="c" cx="2" cy="2" r="2" transform="translate(366 386)"/></g><g transform="translate(-6 -350)"><circle class="c" cx="2" cy="2" r="2" transform="translate(366 386)"/></g><g transform="translate(30 -350)"><circle class="c" cx="2" cy="2" r="2" transform="translate(366 386)"/></g><g transform="translate(66 -350)"><circle class="c" cx="2" cy="2" r="2" transform="translate(366 386)"/></g><g transform="translate(102 -350)"><circle class="c" cx="2" cy="2" r="2" transform="translate(366 386)"/></g><g transform="translate(138 -350)"><circle class="c" cx="2" cy="2" r="2" transform="translate(366 386)"/></g><g transform="translate(174 -350)"><circle class="c" cx="2" cy="2" r="2" transform="translate(366 386)"/></g><g transform="translate(210 -350)"><circle class="c" cx="2" cy="2" r="2" transform="translate(366 386)"/></g><g transform="translate(246 -350)"><circle class="c" cx="2" cy="2" r="2" transform="translate(366 386)"/></g><g transform="translate(282 -350)"><circle class="c" cx="2" cy="2" r="2" transform="translate(366 386)"/></g><g transform="translate(318 -350)"><circle class="c" cx="2" cy="2" r="2" transform="translate(366 386)"/></g><g transform="translate(354 -350)"><circle class="c" cx="2" cy="2" r="2" transform="translate(366 386)"/></g><g transform="translate(390 -350)"><circle class="c" cx="2" cy="2" r="2" transform="translate(366 386)"/></g><g transform="translate(426 -350)"><circle class="c" cx="2" cy="2" r="2" transform="translate(366 386)"/></g><g transform="translate(462 -350)"><circle class="c" cx="2" cy="2" r="2" transform="translate(366 386)"/></g><g transform="translate(498 -350)"><circle class="c" cx="2" cy="2" r="2" transform="translate(366 386)"/></g><g transform="translate(534 -350)"><circle class="c" cx="2" cy="2" r="2" transform="translate(366 386)"/></g><g transform="translate(570 -350)"><circle class="c" cx="2" cy="2" r="2" transform="translate(366 386)"/></g><g transform="translate(-366 -314)"><circle class="c" cx="2" cy="2" r="2" transform="translate(366 386)"/></g><g transform="translate(-330 -314)"><circle class="c" cx="2" cy="2" r="2" transform="translate(366 386)"/></g><g transform="translate(-294 -314)"><circle class="c" cx="2" cy="2" r="2" transform="translate(366 386)"/></g><g transform="translate(-258 -314)"><circle class="c" cx="2" cy="2" r="2" transform="translate(366 386)"/></g><g transform="translate(-222 -314)"><circle class="c" cx="2" cy="2" r="2" transform="translate(366 386)"/></g><g transform="translate(-186 -314)"><circle class="c" cx="2" cy="2" r="2" transform="translate(366 386)"/></g><g transform="translate(-150 -314)"><circle class="c" cx="2" cy="2" r="2" transform="translate(366 386)"/></g><g transform="translate(-114 -314)"><circle class="c" cx="2" cy="2" r="2" transform="translate(366 386)"/></g><g transform="translate(-78 -314)"><circle class="c" cx="2" cy="2" r="2" transform="translate(366 386)"/></g><g transform="translate(-42 -314)"><circle class="c" cx="2" cy="2" r="2" transform="translate(366 386)"/></g><g transform="translate(-6 -314)"><circle class="c" cx="2" cy="2" r="2" transform="translate(366 386)"/></g><g transform="translate(30 -314)"><circle class="c" cx="2" cy="2" r="2" transform="translate(366 386)"/></g><g transform="translate(66 -314)"><circle class="c" cx="2" cy="2" r="2" transform="translate(366 386)"/></g><g transform="translate(102 -314)"><circle class="c" cx="2" cy="2" r="2" transform="translate(366 386)"/></g><g transform="translate(138 -314)"><circle class="c" cx="2" cy="2" r="2" transform="translate(366 386)"/></g><g transform="translate(174 -314)"><circle class="c" cx="2" cy="2" r="2" transform="translate(366 386)"/></g><g transform="translate(210 -314)"><circle class="c" cx="2" cy="2" r="2" transform="translate(366 386)"/></g><g transform="translate(246 -314)"><circle class="c" cx="2" cy="2" r="2" transform="translate(366 386)"/></g><g transform="translate(282 -314)"><circle class="c" cx="2" cy="2" r="2" transform="translate(366 386)"/></g><g transform="translate(318 -314)"><circle class="c" cx="2" cy="2" r="2" transform="translate(366 386)"/></g><g transform="translate(354 -314)"><circle class="c" cx="2" cy="2" r="2" transform="translate(366 386)"/></g><g transform="translate(390 -314)"><circle class="c" cx="2" cy="2" r="2" transform="translate(366 386)"/></g><g transform="translate(426 -314)"><circle class="c" cx="2" cy="2" r="2" transform="translate(366 386)"/></g><g transform="translate(462 -314)"><circle class="c" cx="2" cy="2" r="2" transform="translate(366 386)"/></g><g transform="translate(498 -314)"><circle class="c" cx="2" cy="2" r="2" transform="translate(366 386)"/></g><g transform="translate(534 -314)"><circle class="c" cx="2" cy="2" r="2" transform="translate(366 386)"/></g><g transform="translate(570 -314)"><circle class="c" cx="2" cy="2" r="2" transform="translate(366 386)"/></g><g transform="translate(-366 -278)"><circle class="c" cx="2" cy="2" r="2" transform="translate(366 386)"/></g><g transform="translate(-330 -278)"><circle class="c" cx="2" cy="2" r="2" transform="translate(366 386)"/></g><g transform="translate(-294 -278)"><circle class="c" cx="2" cy="2" r="2" transform="translate(366 386)"/></g><g transform="translate(-258 -278)"><circle class="c" cx="2" cy="2" r="2" transform="translate(366 386)"/></g><g transform="translate(-222 -278)"><circle class="c" cx="2" cy="2" r="2" transform="translate(366 386)"/></g><g transform="translate(-186 -278)"><circle class="c" cx="2" cy="2" r="2" transform="translate(366 386)"/></g><g transform="translate(-150 -278)"><circle class="c" cx="2" cy="2" r="2" transform="translate(366 386)"/></g><g transform="translate(-114 -278)"><circle class="c" cx="2" cy="2" r="2" transform="translate(366 386)"/></g><g transform="translate(-78 -278)"><circle class="c" cx="2" cy="2" r="2" transform="translate(366 386)"/></g><g transform="translate(-42 -278)"><circle class="c" cx="2" cy="2" r="2" transform="translate(366 386)"/></g><g transform="translate(-6 -278)"><circle class="c" cx="2" cy="2" r="2" transform="translate(366 386)"/></g><g transform="translate(30 -278)"><circle class="c" cx="2" cy="2" r="2" transform="translate(366 386)"/></g><g transform="translate(66 -278)"><circle class="c" cx="2" cy="2" r="2" transform="translate(366 386)"/></g><g transform="translate(102 -278)"><circle class="c" cx="2" cy="2" r="2" transform="translate(366 386)"/></g><g transform="translate(138 -278)"><circle class="c" cx="2" cy="2" r="2" transform="translate(366 386)"/></g><g transform="translate(174 -278)"><circle class="c" cx="2" cy="2" r="2" transform="translate(366 386)"/></g><g transform="translate(210 -278)"><circle class="c" cx="2" cy="2" r="2" transform="translate(366 386)"/></g><g transform="translate(246 -278)"><circle class="c" cx="2" cy="2" r="2" transform="translate(366 386)"/></g><g transform="translate(282 -278)"><circle class="c" cx="2" cy="2" r="2" transform="translate(366 386)"/></g><g transform="translate(318 -278)"><circle class="c" cx="2" cy="2" r="2" transform="translate(366 386)"/></g><g transform="translate(354 -278)"><circle class="c" cx="2" cy="2" r="2" transform="translate(366 386)"/></g><g transform="translate(390 -278)"><circle class="c" cx="2" cy="2" r="2" transform="translate(366 386)"/></g><g transform="translate(426 -278)"><circle class="c" cx="2" cy="2" r="2" transform="translate(366 386)"/></g><g transform="translate(462 -278)"><circle class="c" cx="2" cy="2" r="2" transform="translate(366 386)"/></g><g transform="translate(498 -278)"><circle class="c" cx="2" cy="2" r="2" transform="translate(366 386)"/></g><g transform="translate(534 -278)"><circle class="c" cx="2" cy="2" r="2" transform="translate(366 386)"/></g><g transform="translate(570 -278)"><circle class="c" cx="2" cy="2" r="2" transform="translate(366 386)"/></g><g transform="translate(-366 -242)"><circle class="c" cx="2" cy="2" r="2" transform="translate(366 386)"/></g><g transform="translate(-330 -242)"><circle class="c" cx="2" cy="2" r="2" transform="translate(366 386)"/></g><g transform="translate(-294 -242)"><circle class="c" cx="2" cy="2" r="2" transform="translate(366 386)"/></g><g transform="translate(-258 -242)"><circle class="c" cx="2" cy="2" r="2" transform="translate(366 386)"/></g><g transform="translate(-222 -242)"><circle class="c" cx="2" cy="2" r="2" transform="translate(366 386)"/></g><g transform="translate(-186 -242)"><circle class="c" cx="2" cy="2" r="2" transform="translate(366 386)"/></g><g transform="translate(-150 -242)"><circle class="c" cx="2" cy="2" r="2" transform="translate(366 386)"/></g><g transform="translate(-114 -242)"><circle class="c" cx="2" cy="2" r="2" transform="translate(366 386)"/></g><g transform="translate(-78 -242)"><circle class="c" cx="2" cy="2" r="2" transform="translate(366 386)"/></g><g transform="translate(-42 -242)"><circle class="c" cx="2" cy="2" r="2" transform="translate(366 386)"/></g><g transform="translate(-6 -242)"><circle class="c" cx="2" cy="2" r="2" transform="translate(366 386)"/></g><g transform="translate(30 -242)"><circle class="c" cx="2" cy="2" r="2" transform="translate(366 386)"/></g><g transform="translate(66 -242)"><circle class="c" cx="2" cy="2" r="2" transform="translate(366 386)"/></g><g transform="translate(102 -242)"><circle class="c" cx="2" cy="2" r="2" transform="translate(366 386)"/></g><g transform="translate(138 -242)"><circle class="c" cx="2" cy="2" r="2" transform="translate(366 386)"/></g><g transform="translate(174 -242)"><circle class="c" cx="2" cy="2" r="2" transform="translate(366 386)"/></g><g transform="translate(210 -242)"><circle class="c" cx="2" cy="2" r="2" transform="translate(366 386)"/></g><g transform="translate(246 -242)"><circle class="c" cx="2" cy="2" r="2" transform="translate(366 386)"/></g><g transform="translate(282 -242)"><circle class="c" cx="2" cy="2" r="2" transform="translate(366 386)"/></g><g transform="translate(318 -242)"><circle class="c" cx="2" cy="2" r="2" transform="translate(366 386)"/></g><g transform="translate(354 -242)"><circle class="c" cx="2" cy="2" r="2" transform="translate(366 386)"/></g><g transform="translate(390 -242)"><circle class="c" cx="2" cy="2" r="2" transform="translate(366 386)"/></g><g transform="translate(426 -242)"><circle class="c" cx="2" cy="2" r="2" transform="translate(366 386)"/></g><g transform="translate(462 -242)"><circle class="c" cx="2" cy="2" r="2" transform="translate(366 386)"/></g><g transform="translate(498 -242)"><circle class="c" cx="2" cy="2" r="2" transform="translate(366 386)"/></g><g transform="translate(534 -242)"><circle class="c" cx="2" cy="2" r="2" transform="translate(366 386)"/></g><g transform="translate(570 -242)"><circle class="c" cx="2" cy="2" r="2" transform="translate(366 386)"/></g><g transform="translate(-366 -206)"><circle class="c" cx="2" cy="2" r="2" transform="translate(366 386)"/></g><g transform="translate(-330 -206)"><circle class="c" cx="2" cy="2" r="2" transform="translate(366 386)"/></g><g transform="translate(-294 -206)"><circle class="c" cx="2" cy="2" r="2" transform="translate(366 386)"/></g><g transform="translate(-258 -206)"><circle class="c" cx="2" cy="2" r="2" transform="translate(366 386)"/></g><g transform="translate(-222 -206)"><circle class="c" cx="2" cy="2" r="2" transform="translate(366 386)"/></g><g transform="translate(-186 -206)"><circle class="c" cx="2" cy="2" r="2" transform="translate(366 386)"/></g><g transform="translate(-150 -206)"><circle class="c" cx="2" cy="2" r="2" transform="translate(366 386)"/></g><g transform="translate(-114 -206)"><circle class="c" cx="2" cy="2" r="2" transform="translate(366 386)"/></g><g transform="translate(-78 -206)"><circle class="c" cx="2" cy="2" r="2" transform="translate(366 386)"/></g><g transform="translate(-42 -206)"><circle class="c" cx="2" cy="2" r="2" transform="translate(366 386)"/></g><g transform="translate(-6 -206)"><circle class="c" cx="2" cy="2" r="2" transform="translate(366 386)"/></g><g transform="translate(30 -206)"><circle class="c" cx="2" cy="2" r="2" transform="translate(366 386)"/></g><g transform="translate(66 -206)"><circle class="c" cx="2" cy="2" r="2" transform="translate(366 386)"/></g><g transform="translate(102 -206)"><circle class="c" cx="2" cy="2" r="2" transform="translate(366 386)"/></g><g transform="translate(138 -206)"><circle class="c" cx="2" cy="2" r="2" transform="translate(366 386)"/></g><g transform="translate(174 -206)"><circle class="c" cx="2" cy="2" r="2" transform="translate(366 386)"/></g><g transform="translate(210 -206)"><circle class="c" cx="2" cy="2" r="2" transform="translate(366 386)"/></g><g transform="translate(246 -206)"><circle class="c" cx="2" cy="2" r="2" transform="translate(366 386)"/></g><g transform="translate(282 -206)"><circle class="c" cx="2" cy="2" r="2" transform="translate(366 386)"/></g><g transform="translate(318 -206)"><circle class="c" cx="2" cy="2" r="2" transform="translate(366 386)"/></g><g transform="translate(354 -206)"><circle class="c" cx="2" cy="2" r="2" transform="translate(366 386)"/></g><g transform="translate(390 -206)"><circle class="c" cx="2" cy="2" r="2" transform="translate(366 386)"/></g><g transform="translate(426 -206)"><circle class="c" cx="2" cy="2" r="2" transform="translate(366 386)"/></g><g transform="translate(462 -206)"><circle class="c" cx="2" cy="2" r="2" transform="translate(366 386)"/></g><g transform="translate(498 -206)"><circle class="c" cx="2" cy="2" r="2" transform="translate(366 386)"/></g><g transform="translate(534 -206)"><circle class="c" cx="2" cy="2" r="2" transform="translate(366 386)"/></g><g transform="translate(570 -206)"><circle class="c" cx="2" cy="2" r="2" transform="translate(366 386)"/></g><g transform="translate(-366 -170)"><circle class="c" cx="2" cy="2" r="2" transform="translate(366 386)"/></g><g transform="translate(-330 -170)"><circle class="c" cx="2" cy="2" r="2" transform="translate(366 386)"/></g><g transform="translate(-294 -170)"><circle class="c" cx="2" cy="2" r="2" transform="translate(366 386)"/></g><g transform="translate(-258 -170)"><circle class="c" cx="2" cy="2" r="2" transform="translate(366 386)"/></g><g transform="translate(-222 -170)"><circle class="c" cx="2" cy="2" r="2" transform="translate(366 386)"/></g><g transform="translate(-186 -170)"><circle class="c" cx="2" cy="2" r="2" transform="translate(366 386)"/></g><g transform="translate(-150 -170)"><circle class="c" cx="2" cy="2" r="2" transform="translate(366 386)"/></g><g transform="translate(-114 -170)"><circle class="c" cx="2" cy="2" r="2" transform="translate(366 386)"/></g><g transform="translate(-78 -170)"><circle class="c" cx="2" cy="2" r="2" transform="translate(366 386)"/></g><g transform="translate(-42 -170)"><circle class="c" cx="2" cy="2" r="2" transform="translate(366 386)"/></g><g transform="translate(-6 -170)"><circle class="c" cx="2" cy="2" r="2" transform="translate(366 386)"/></g><g transform="translate(30 -170)"><circle class="c" cx="2" cy="2" r="2" transform="translate(366 386)"/></g><g transform="translate(66 -170)"><circle class="c" cx="2" cy="2" r="2" transform="translate(366 386)"/></g><g transform="translate(102 -170)"><circle class="c" cx="2" cy="2" r="2" transform="translate(366 386)"/></g><g transform="translate(138 -170)"><circle class="c" cx="2" cy="2" r="2" transform="translate(366 386)"/></g><g transform="translate(174 -170)"><circle class="c" cx="2" cy="2" r="2" transform="translate(366 386)"/></g><g transform="translate(210 -170)"><circle class="c" cx="2" cy="2" r="2" transform="translate(366 386)"/></g><g transform="translate(246 -170)"><circle class="c" cx="2" cy="2" r="2" transform="translate(366 386)"/></g><g transform="translate(282 -170)"><circle class="c" cx="2" cy="2" r="2" transform="translate(366 386)"/></g><g transform="translate(318 -170)"><circle class="c" cx="2" cy="2" r="2" transform="translate(366 386)"/></g><g transform="translate(354 -170)"><circle class="c" cx="2" cy="2" r="2" transform="translate(366 386)"/></g><g transform="translate(390 -170)"><circle class="c" cx="2" cy="2" r="2" transform="translate(366 386)"/></g><g transform="translate(426 -170)"><circle class="c" cx="2" cy="2" r="2" transform="translate(366 386)"/></g><g transform="translate(462 -170)"><circle class="c" cx="2" cy="2" r="2" transform="translate(366 386)"/></g><g transform="translate(498 -170)"><circle class="c" cx="2" cy="2" r="2" transform="translate(366 386)"/></g><g transform="translate(534 -170)"><circle class="c" cx="2" cy="2" r="2" transform="translate(366 386)"/></g><g transform="translate(570 -170)"><circle class="c" cx="2" cy="2" r="2" transform="translate(366 386)"/></g><g transform="translate(-366 -134)"><circle class="c" cx="2" cy="2" r="2" transform="translate(366 386)"/></g><g transform="translate(-330 -134)"><circle class="c" cx="2" cy="2" r="2" transform="translate(366 386)"/></g><g transform="translate(-294 -134)"><circle class="c" cx="2" cy="2" r="2" transform="translate(366 386)"/></g><g transform="translate(-258 -134)"><circle class="c" cx="2" cy="2" r="2" transform="translate(366 386)"/></g><g transform="translate(-222 -134)"><circle class="c" cx="2" cy="2" r="2" transform="translate(366 386)"/></g><g transform="translate(-186 -134)"><circle class="c" cx="2" cy="2" r="2" transform="translate(366 386)"/></g><g transform="translate(-150 -134)"><circle class="c" cx="2" cy="2" r="2" transform="translate(366 386)"/></g><g transform="translate(-114 -134)"><circle class="c" cx="2" cy="2" r="2" transform="translate(366 386)"/></g><g transform="translate(-78 -134)"><circle class="c" cx="2" cy="2" r="2" transform="translate(366 386)"/></g><g transform="translate(-42 -134)"><circle class="c" cx="2" cy="2" r="2" transform="translate(366 386)"/></g><g transform="translate(-6 -134)"><circle class="c" cx="2" cy="2" r="2" transform="translate(366 386)"/></g><g transform="translate(30 -134)"><circle class="c" cx="2" cy="2" r="2" transform="translate(366 386)"/></g><g transform="translate(66 -134)"><circle class="c" cx="2" cy="2" r="2" transform="translate(366 386)"/></g><g transform="translate(102 -134)"><circle class="c" cx="2" cy="2" r="2" transform="translate(366 386)"/></g><g transform="translate(138 -134)"><circle class="c" cx="2" cy="2" r="2" transform="translate(366 386)"/></g><g transform="translate(174 -134)"><circle class="c" cx="2" cy="2" r="2" transform="translate(366 386)"/></g><g transform="translate(210 -134)"><circle class="c" cx="2" cy="2" r="2" transform="translate(366 386)"/></g><g transform="translate(246 -134)"><circle class="c" cx="2" cy="2" r="2" transform="translate(366 386)"/></g><g transform="translate(282 -134)"><circle class="c" cx="2" cy="2" r="2" transform="translate(366 386)"/></g><g transform="translate(318 -134)"><circle class="c" cx="2" cy="2" r="2" transform="translate(366 386)"/></g><g transform="translate(354 -134)"><circle class="c" cx="2" cy="2" r="2" transform="translate(366 386)"/></g><g transform="translate(390 -134)"><circle class="c" cx="2" cy="2" r="2" transform="translate(366 386)"/></g><g transform="translate(426 -134)"><circle class="c" cx="2" cy="2" r="2" transform="translate(366 386)"/></g><g transform="translate(462 -134)"><circle class="c" cx="2" cy="2" r="2" transform="translate(366 386)"/></g><g transform="translate(498 -134)"><circle class="c" cx="2" cy="2" r="2" transform="translate(366 386)"/></g><g transform="translate(534 -134)"><circle class="c" cx="2" cy="2" r="2" transform="translate(366 386)"/></g><g transform="translate(570 -134)"><circle class="c" cx="2" cy="2" r="2" transform="translate(366 386)"/></g><g transform="translate(-366 -98)"><circle class="c" cx="2" cy="2" r="2" transform="translate(366 386)"/></g><g transform="translate(-330 -98)"><circle class="c" cx="2" cy="2" r="2" transform="translate(366 386)"/></g><g transform="translate(-294 -98)"><circle class="c" cx="2" cy="2" r="2" transform="translate(366 386)"/></g><g transform="translate(-258 -98)"><circle class="c" cx="2" cy="2" r="2" transform="translate(366 386)"/></g><g transform="translate(-222 -98)"><circle class="c" cx="2" cy="2" r="2" transform="translate(366 386)"/></g><g transform="translate(-186 -98)"><circle class="c" cx="2" cy="2" r="2" transform="translate(366 386)"/></g><g transform="translate(-150 -98)"><circle class="c" cx="2" cy="2" r="2" transform="translate(366 386)"/></g><g transform="translate(-114 -98)"><circle class="c" cx="2" cy="2" r="2" transform="translate(366 386)"/></g><g transform="translate(-78 -98)"><circle class="c" cx="2" cy="2" r="2" transform="translate(366 386)"/></g><g transform="translate(-42 -98)"><circle class="c" cx="2" cy="2" r="2" transform="translate(366 386)"/></g><g transform="translate(-6 -98)"><circle class="c" cx="2" cy="2" r="2" transform="translate(366 386)"/></g><g transform="translate(30 -98)"><circle class="c" cx="2" cy="2" r="2" transform="translate(366 386)"/></g><g transform="translate(66 -98)"><circle class="c" cx="2" cy="2" r="2" transform="translate(366 386)"/></g><g transform="translate(102 -98)"><circle class="c" cx="2" cy="2" r="2" transform="translate(366 386)"/></g><g transform="translate(138 -98)"><circle class="c" cx="2" cy="2" r="2" transform="translate(366 386)"/></g><g transform="translate(174 -98)"><circle class="c" cx="2" cy="2" r="2" transform="translate(366 386)"/></g><g transform="translate(210 -98)"><circle class="c" cx="2" cy="2" r="2" transform="translate(366 386)"/></g><g transform="translate(246 -98)"><circle class="c" cx="2" cy="2" r="2" transform="translate(366 386)"/></g><g transform="translate(282 -98)"><circle class="c" cx="2" cy="2" r="2" transform="translate(366 386)"/></g><g transform="translate(318 -98)"><circle class="c" cx="2" cy="2" r="2" transform="translate(366 386)"/></g><g transform="translate(354 -98)"><circle class="c" cx="2" cy="2" r="2" transform="translate(366 386)"/></g><g transform="translate(390 -98)"><circle class="c" cx="2" cy="2" r="2" transform="translate(366 386)"/></g><g transform="translate(426 -98)"><circle class="c" cx="2" cy="2" r="2" transform="translate(366 386)"/></g><g transform="translate(462 -98)"><circle class="c" cx="2" cy="2" r="2" transform="translate(366 386)"/></g><g transform="translate(498 -98)"><circle class="c" cx="2" cy="2" r="2" transform="translate(366 386)"/></g><g transform="translate(534 -98)"><circle class="c" cx="2" cy="2" r="2" transform="translate(366 386)"/></g><g transform="translate(570 -98)"><circle class="c" cx="2" cy="2" r="2" transform="translate(366 386)"/></g><g transform="translate(-366 -62)"><circle class="c" cx="2" cy="2" r="2" transform="translate(366 386)"/></g><g transform="translate(-330 -62)"><circle class="c" cx="2" cy="2" r="2" transform="translate(366 386)"/></g><g transform="translate(-294 -62)"><circle class="c" cx="2" cy="2" r="2" transform="translate(366 386)"/></g><g transform="translate(-258 -62)"><circle class="c" cx="2" cy="2" r="2" transform="translate(366 386)"/></g><g transform="translate(-222 -62)"><circle class="c" cx="2" cy="2" r="2" transform="translate(366 386)"/></g><g transform="translate(-186 -62)"><circle class="c" cx="2" cy="2" r="2" transform="translate(366 386)"/></g><g transform="translate(-150 -62)"><circle class="c" cx="2" cy="2" r="2" transform="translate(366 386)"/></g><g transform="translate(-114 -62)"><circle class="c" cx="2" cy="2" r="2" transform="translate(366 386)"/></g><g transform="translate(-78 -62)"><circle class="c" cx="2" cy="2" r="2" transform="translate(366 386)"/></g><g transform="translate(-42 -62)"><circle class="c" cx="2" cy="2" r="2" transform="translate(366 386)"/></g><g transform="translate(-6 -62)"><circle class="c" cx="2" cy="2" r="2" transform="translate(366 386)"/></g><g transform="translate(30 -62)"><circle class="c" cx="2" cy="2" r="2" transform="translate(366 386)"/></g><g transform="translate(66 -62)"><circle class="c" cx="2" cy="2" r="2" transform="translate(366 386)"/></g><g transform="translate(102 -62)"><circle class="c" cx="2" cy="2" r="2" transform="translate(366 386)"/></g><g transform="translate(138 -62)"><circle class="c" cx="2" cy="2" r="2" transform="translate(366 386)"/></g><g transform="translate(174 -62)"><circle class="c" cx="2" cy="2" r="2" transform="translate(366 386)"/></g><g transform="translate(210 -62)"><circle class="c" cx="2" cy="2" r="2" transform="translate(366 386)"/></g><g transform="translate(246 -62)"><circle class="c" cx="2" cy="2" r="2" transform="translate(366 386)"/></g><g transform="translate(282 -62)"><circle class="c" cx="2" cy="2" r="2" transform="translate(366 386)"/></g><g transform="translate(318 -62)"><circle class="c" cx="2" cy="2" r="2" transform="translate(366 386)"/></g><g transform="translate(354 -62)"><circle class="c" cx="2" cy="2" r="2" transform="translate(366 386)"/></g><g transform="translate(390 -62)"><circle class="c" cx="2" cy="2" r="2" transform="translate(366 386)"/></g><g transform="translate(426 -62)"><circle class="c" cx="2" cy="2" r="2" transform="translate(366 386)"/></g><g transform="translate(462 -62)"><circle class="c" cx="2" cy="2" r="2" transform="translate(366 386)"/></g><g transform="translate(498 -62)"><circle class="c" cx="2" cy="2" r="2" transform="translate(366 386)"/></g><g transform="translate(534 -62)"><circle class="c" cx="2" cy="2" r="2" transform="translate(366 386)"/></g><g transform="translate(570 -62)"><circle class="c" cx="2" cy="2" r="2" transform="translate(366 386)"/></g><g transform="translate(-366 -26)"><circle class="c" cx="2" cy="2" r="2" transform="translate(366 386)"/></g><g transform="translate(-330 -26)"><circle class="c" cx="2" cy="2" r="2" transform="translate(366 386)"/></g><g transform="translate(-294 -26)"><circle class="c" cx="2" cy="2" r="2" transform="translate(366 386)"/></g><g transform="translate(-258 -26)"><circle class="c" cx="2" cy="2" r="2" transform="translate(366 386)"/></g><g transform="translate(-222 -26)"><circle class="c" cx="2" cy="2" r="2" transform="translate(366 386)"/></g><g transform="translate(-186 -26)"><circle class="c" cx="2" cy="2" r="2" transform="translate(366 386)"/></g><g transform="translate(-150 -26)"><circle class="c" cx="2" cy="2" r="2" transform="translate(366 386)"/></g><g transform="translate(-114 -26)"><circle class="c" cx="2" cy="2" r="2" transform="translate(366 386)"/></g><g transform="translate(-78 -26)"><circle class="c" cx="2" cy="2" r="2" transform="translate(366 386)"/></g><g transform="translate(-42 -26)"><circle class="c" cx="2" cy="2" r="2" transform="translate(366 386)"/></g><g transform="translate(-6 -26)"><circle class="c" cx="2" cy="2" r="2" transform="translate(366 386)"/></g><g transform="translate(30 -26)"><circle class="c" cx="2" cy="2" r="2" transform="translate(366 386)"/></g><g transform="translate(66 -26)"><circle class="c" cx="2" cy="2" r="2" transform="translate(366 386)"/></g><g transform="translate(102 -26)"><circle class="c" cx="2" cy="2" r="2" transform="translate(366 386)"/></g><g transform="translate(138 -26)"><circle class="c" cx="2" cy="2" r="2" transform="translate(366 386)"/></g><g transform="translate(174 -26)"><circle class="c" cx="2" cy="2" r="2" transform="translate(366 386)"/></g><g transform="translate(210 -26)"><circle class="c" cx="2" cy="2" r="2" transform="translate(366 386)"/></g><g transform="translate(246 -26)"><circle class="c" cx="2" cy="2" r="2" transform="translate(366 386)"/></g><g transform="translate(282 -26)"><circle class="c" cx="2" cy="2" r="2" transform="translate(366 386)"/></g><g transform="translate(318 -26)"><circle class="c" cx="2" cy="2" r="2" transform="translate(366 386)"/></g><g transform="translate(354 -26)"><circle class="c" cx="2" cy="2" r="2" transform="translate(366 386)"/></g><g transform="translate(390 -26)"><circle class="c" cx="2" cy="2" r="2" transform="translate(366 386)"/></g><g transform="translate(426 -26)"><circle class="c" cx="2" cy="2" r="2" transform="translate(366 386)"/></g><g transform="translate(462 -26)"><circle class="c" cx="2" cy="2" r="2" transform="translate(366 386)"/></g><g transform="translate(498 -26)"><circle class="c" cx="2" cy="2" r="2" transform="translate(366 386)"/></g><g transform="translate(534 -26)"><circle class="c" cx="2" cy="2" r="2" transform="translate(366 386)"/></g><g transform="translate(570 -26)"><circle class="c" cx="2" cy="2" r="2" transform="translate(366 386)"/></g><g transform="translate(-366 10)"><circle class="c" cx="2" cy="2" r="2" transform="translate(366 386)"/></g><g transform="translate(-330 10)"><circle class="c" cx="2" cy="2" r="2" transform="translate(366 386)"/></g><g transform="translate(-294 10)"><circle class="c" cx="2" cy="2" r="2" transform="translate(366 386)"/></g><g transform="translate(-258 10)"><circle class="c" cx="2" cy="2" r="2" transform="translate(366 386)"/></g><g transform="translate(-222 10)"><circle class="c" cx="2" cy="2" r="2" transform="translate(366 386)"/></g><g transform="translate(-186 10)"><circle class="c" cx="2" cy="2" r="2" transform="translate(366 386)"/></g><g transform="translate(-150 10)"><circle class="c" cx="2" cy="2" r="2" transform="translate(366 386)"/></g><g transform="translate(-114 10)"><circle class="c" cx="2" cy="2" r="2" transform="translate(366 386)"/></g><g transform="translate(-78 10)"><circle class="c" cx="2" cy="2" r="2" transform="translate(366 386)"/></g><g transform="translate(-42 10)"><circle class="c" cx="2" cy="2" r="2" transform="translate(366 386)"/></g><g transform="translate(-6 10)"><circle class="c" cx="2" cy="2" r="2" transform="translate(366 386)"/></g><g transform="translate(30 10)"><circle class="c" cx="2" cy="2" r="2" transform="translate(366 386)"/></g><g transform="translate(66 10)"><circle class="c" cx="2" cy="2" r="2" transform="translate(366 386)"/></g><g transform="translate(102 10)"><circle class="c" cx="2" cy="2" r="2" transform="translate(366 386)"/></g><g transform="translate(138 10)"><circle class="c" cx="2" cy="2" r="2" transform="translate(366 386)"/></g><g transform="translate(174 10)"><circle class="c" cx="2" cy="2" r="2" transform="translate(366 386)"/></g><g transform="translate(210 10)"><circle class="c" cx="2" cy="2" r="2" transform="translate(366 386)"/></g><g transform="translate(246 10)"><circle class="c" cx="2" cy="2" r="2" transform="translate(366 386)"/></g><g transform="translate(282 10)"><circle class="c" cx="2" cy="2" r="2" transform="translate(366 386)"/></g><g transform="translate(318 10)"><circle class="c" cx="2" cy="2" r="2" transform="translate(366 386)"/></g><g transform="translate(354 10)"><circle class="c" cx="2" cy="2" r="2" transform="translate(366 386)"/></g><g transform="translate(390 10)"><circle class="c" cx="2" cy="2" r="2" transform="translate(366 386)"/></g><g transform="translate(426 10)"><circle class="c" cx="2" cy="2" r="2" transform="translate(366 386)"/></g><g transform="translate(462 10)"><circle class="c" cx="2" cy="2" r="2" transform="translate(366 386)"/></g><g transform="translate(498 10)"><circle class="c" cx="2" cy="2" r="2" transform="translate(366 386)"/></g><g transform="translate(534 10)"><circle class="c" cx="2" cy="2" r="2" transform="translate(366 386)"/></g><g transform="translate(570 10)"><circle class="c" cx="2" cy="2" r="2" transform="translate(366 386)"/></g></g></g></svg>