<svg xmlns="http://www.w3.org/2000/svg" xmlns:xlink="http://www.w3.org/1999/xlink"
     viewBox="0 0 80 96.157">
    <defs>
        <style>
            .a{fill:none;}.b{clip-path:url(#a);}.c{clip-path:url(#b);}.d{clip-path:url(#c);}.e{fill:#fff;}.f{clip-path:url(#e);}.g{clip-path:url(#g);}.h{fill:#fff;}.i{fill:#fff;}.j{clip-path:url(#k);}.k{clip-path:url(#m);}.l{fill:#fff;}.m{fill:#fff;}.n{clip-path:url(#q);}.o{clip-path:url(#s);}.p{fill:#fff;}.q{fill:#fff;}
        </style>
        <clipPath id="a">
            <path class="a" d="M28.242-.262H277.337V-96.419H28.242Z" transform="translate(-28.242 96.419)"/>
        </clipPath>
        <clipPath id="b">
            <rect class="a" width="92360.367" height="92360.352"/>
        </clipPath>
        <clipPath id="c">
            <path class="a" d="M28.242-96.419H277.337V-.262H28.242Z" transform="translate(-28.242 96.419)"/>
        </clipPath>
        <clipPath id="e">
            <path class="a"
                  d="M29.654-64.1a40.665,40.665,0,0,0-1.45,10.7,25.333,25.333,0,0,0,.163,3.53A50.1,50.1,0,0,1,86.433-17.586,40.4,40.4,0,0,0,97.845-26.26,63.648,63.648,0,0,0,39.4-64.57a67.36,67.36,0,0,0-9.741.465"
                  transform="translate(-28.204 64.591)"/>
        </clipPath>
        <clipPath id="g">
            <path class="a" d="M17.077-16.889,41.726-81.2l76.4,29.282L93.477,12.393Z"
                  transform="translate(-17.077 81.202)"/>
        </clipPath>
        <clipPath id="k">
            <path class="a"
                  d="M65.9-96.419v16.09A40,40,0,0,0,34.048-64.54,76.179,76.179,0,0,1,103.36-26.23a39.967,39.967,0,0,0,2.545-14.092v-56.1Z"
                  transform="translate(-34.048 96.419)"/>
        </clipPath>
        <clipPath id="m">
            <path class="a" d="M17.409-28.226l32.67-85.24,86.134,33.012L103.544,4.787Z"
                  transform="translate(-17.409 113.466)"/>
        </clipPath>
        <clipPath id="q">
            <path class="a"
                  d="M30.6-45.014A40.306,40.306,0,0,0,42.613-29.527,10.484,10.484,0,0,1,51.1-27.694a10.381,10.381,0,0,1,3.5,4.652,40.49,40.49,0,0,0,12.7,2.052,38.071,38.071,0,0,0,5.884-.437A37.434,37.434,0,0,0,38.1-45.781a36.693,36.693,0,0,0-7.526.767Z"
                  transform="translate(-30.572 45.781)"/>
        </clipPath>
        <clipPath id="s">
            <path class="a" d="M24.718-20.029l13.74-35.849L83.889-38.466,70.149-2.617Z"
                  transform="translate(-24.718 55.878)"/>
        </clipPath>
    </defs>
    <g class="b">
        <g transform="translate(-46220.691 -46043.586)">
            <g class="c">
                <g class="d" transform="translate(46220.691 46043.586)">
                    <g transform="translate(-46220.691 -46043.586)">
                        <g class="c">
                            <g transform="translate(46318.602 46045.75)">
                                <path class="e"
                                      d="M3.537,2.464a10.947,10.947,0,0,1,8.674,4.1V-6.019h6.814V29.554H12.211V25.5a10.071,10.071,0,0,1-8.729,4.377c-6.759,0-12.122-5.472-12.122-13.818S-3.168,2.382,3.537,2.382M5.205,8.265A7.059,7.059,0,0,0-1.8,15.376c0,.2.011.4.03.606a7.249,7.249,0,0,0,6.56,7.881c.14.013.279.023.417.027A7.142,7.142,0,0,0,12.3,16.7c0-.2-.011-.4-.03-.606a7.171,7.171,0,0,0-6.483-7.8c-.192-.017-.385-.027-.578-.03"
                                      transform="translate(8.64 6.019)"/>
                            </g>
                            <g transform="translate(46352.039 46043.234)">
                                <path class="e"
                                      d="M.016,1.255A4.132,4.132,0,1,1,4.334,5.192q-.12.006-.241,0A3.942,3.942,0,0,1-.035,1.451c0-.065,0-.131,0-.2M.7,8.343H7.4v26.57H.754Z"
                                      transform="translate(0.039 3.067)"/>
                            </g>
                            <g transform="translate(46364.41 46054.152)">
                                <path class="e"
                                      d="M3.521.024A10.4,10.4,0,0,1,12.3,4.238V.434h6.758V27.2a12.124,12.124,0,0,1-13.134,13c-7.471,0-12.7-3.749-13.382-9.823H-.775A6.868,6.868,0,0,0,12.3,27.306V23.065a10.512,10.512,0,0,1-8.784,4.377C-3.21,27.442-8.6,21.97-8.6,13.624S-3.129-.058,3.521-.058M5.272,5.825a7.088,7.088,0,0,0-7.034,7.141c0,.193.011.385.028.576a7.251,7.251,0,0,0,6.562,7.881c.148.013.3.023.444.027a7.114,7.114,0,0,0,7.065-7.164c0-.211-.013-.424-.032-.636A7.143,7.143,0,0,0,5.88,5.857c-.2-.02-.4-.03-.607-.032"
                                      transform="translate(8.601 0.058)"/>
                            </g>
                            <g transform="translate(46397.926 46043.637)">
                                <path class="e"
                                      d="M0,1.138A3.914,3.914,0,0,1,3.908-2.78c.066,0,.131,0,.2,0A3.941,3.941,0,1,1,0,1.138M.712,8.225H7.5V34.8H.712Z"
                                      transform="translate(0 2.78)"/>
                            </g>
                            <g transform="translate(46409.859 46048.074)">
                                <path class="e"
                                      d="M.914,3.513H-2.233V-1.96H.914V-8.582H7.673v6.567h5.966V3.458H7.673V16.291c0,1.779.738,2.545,2.736,2.545h3.12V24.5H9.4C4.334,24.5.914,22.339.914,16.291Z"
                                      transform="translate(2.233 8.582)"/>
                            </g>
                            <g transform="translate(46428.902 46054.152)">
                                <path class="e"
                                      d="M3.513.024a10.477,10.477,0,0,1,8.756,4.214V.434h6.759V27H12.242V23.118a10.48,10.48,0,0,1-8.729,4.324c-6.7,0-12.095-5.472-12.095-13.818S-3.11-.058,3.568-.058M5.291,5.825a7.087,7.087,0,0,0-7.033,7.141c0,.193.01.385.028.576a7.25,7.25,0,0,0,6.56,7.881c.148.013.3.023.444.027a7.113,7.113,0,0,0,7.065-7.164c0-.211-.011-.424-.032-.636A7.143,7.143,0,0,0,5.9,5.857c-.2-.02-.4-.03-.607-.032"
                                      transform="translate(8.582 0.058)"/>
                            </g>
                            <path class="e" d="M200.213-94.885h6.7v35.464h-6.7Z"
                                  transform="translate(46262.844 46140.637)"/>
                            <g transform="translate(46318.902 46099.633)">
                                <path class="e"
                                      d="M3.362,8.019c-6.649,0-11.3-3.886-11.575-8.838h6.731A4.435,4.435,0,0,0,3.335,2.547c2.736,0,4.077-1.2,4.077-2.737,0-4.734-15.023-1.724-15.023-11.438,0-4.432,3.94-7.963,10.508-7.963s10.288,3.5,10.671,8.756h-6.4a3.969,3.969,0,0,0-4.424-3.453l-.037.006c-2.49,0-3.8,1.012-3.8,2.544C-1.1-6.894,13.623-9.9,13.815-.19c0,4.624-3.912,8.209-10.453,8.209"
                                      transform="translate(8.213 19.591)"/>
                            </g>
                            <g transform="translate(46344.352 46093.582)">
                                <path class="e"
                                      d="M.914,3.5H-2.233V-1.976H.914V-8.543H7.673v6.567h5.938V3.5H7.673V16.33c0,1.779.712,2.545,2.736,2.545H13.5V24.54H9.4C4.334,24.54.914,22.378.914,16.33Z"
                                      transform="translate(2.233 8.543)"/>
                            </g>
                            <g transform="translate(46363.234 46099.676)">
                                <path class="e"
                                      d="M3.513,0A10.507,10.507,0,0,1,12.3,4.216V.44h6.758V26.983H12.406V23.1a10.475,10.475,0,0,1-8.893,4.461c-6.731,0-12.095-5.472-12.095-13.818S-3.11.057,3.54.057M5.265,5.939a7.061,7.061,0,0,0-7.009,7.111c0,.2.011.4.03.606a7.253,7.253,0,0,0,6.562,7.882c.138.013.278.021.417.025a7.141,7.141,0,0,0,7.089-7.193c0-.2-.011-.4-.03-.606a7.17,7.17,0,0,0-6.482-7.8c-.193-.017-.385-.027-.578-.03"
                                      transform="translate(8.582 0.005)"/>
                            </g>
                            <g transform="translate(46395.824 46099.602)">
                                <path class="e"
                                      d="M3.521.024a10.344,10.344,0,0,1,8.756,4.214V.462h6.759V27.2A12.118,12.118,0,0,1,5.9,40.084c-7.469,0-12.7-3.721-13.353-9.823H-.8A6.868,6.868,0,0,0,12.277,27.2V23.065a10.454,10.454,0,0,1-8.756,4.377C-3.239,27.442-8.6,21.97-8.6,13.624S-3.129-.058,3.521-.058M5.244,5.825a7.087,7.087,0,0,0-7.013,7.161c0,.213.014.426.035.638a7.28,7.28,0,0,0,6.618,7.885c.128.011.258.018.388.023a7.114,7.114,0,0,0,7.065-7.164c0-.211-.013-.424-.032-.634A7.142,7.142,0,0,0,5.88,5.94c-.2-.02-.4-.031-.607-.032"
                                      transform="translate(8.601 0.058)"/>
                            </g>
                            <g transform="translate(46428.266 46099.863)">
                                <path class="e"
                                      d="M3.881,7.952A12.862,12.862,0,0,1-9.463-4.408,12.923,12.923,0,0,1-9.446-5.73,12.754,12.754,0,0,1,2.326-19.392a12.713,12.713,0,0,1,1.554-.02A12.477,12.477,0,0,1,16.929-7.531q.025.531.006,1.063A13.8,13.8,0,0,1,16.742-3.9H-2.632A6.184,6.184,0,0,0,3.6,2.236l.14,0a5.475,5.475,0,0,0,5.309-3.2H16.3A12.368,12.368,0,0,1,3.881,7.952M-2.577-8.467H10.01A5.909,5.909,0,0,0,3.926-14.2c-.079,0-.158.006-.237.011A6.185,6.185,0,0,0-2.577-8.467"
                                      transform="translate(9.481 19.427)"/>
                            </g>
                        </g>
                    </g>
                </g>
                <g class="f" transform="translate(46220.641 46088.445)">
                    <g transform="translate(-46220.641 -46088.445)">
                        <g class="c">
                            <g class="g" transform="translate(46204.957 46065.035)">
                                <g transform="translate(-46204.957 -46065.035)">
                                    <g class="c">
                                        <g transform="translate(46122.207 46156.98) rotate(-69.03)">
                                            <path class="h" d="M163.976,0l195.76,510.771L195.76,573.617,0,62.846Z"
                                                  transform="translate(0 0)"/>
                                        </g>
                                    </g>
                                </g>
                                <g transform="translate(-82.751 91.949) rotate(-69.03)">
                                    <path class="i" d="M163.976,0l195.76,510.771L195.76,573.617,0,62.846Z"
                                          transform="translate(0 0)"/>
                                </g>
                            </g>
                        </g>
                    </g>
                </g>
                <g class="j" transform="translate(46228.875 46043.586)">
                    <g transform="translate(-46228.875 -46043.586)">
                        <g class="c">
                            <g class="k" transform="translate(46205.426 46019.563)">
                                <g transform="translate(-46205.426 -46019.563)">
                                    <g class="c">
                                        <g transform="translate(46122.207 46156.98) rotate(-69.03)">
                                            <path class="l" d="M163.976,0l195.76,510.771L195.76,573.617,0,62.846Z"
                                                  transform="translate(0 0)"/>
                                        </g>
                                    </g>
                                </g>
                                <g transform="translate(-83.219 137.42) rotate(-69.03)">
                                    <path class="m" d="M163.976,0l195.76,510.771L195.76,573.617,0,62.846Z"
                                          transform="translate(0 0)"/>
                                </g>
                            </g>
                        </g>
                    </g>
                </g>
                <g class="n" transform="translate(46223.977 46114.953)">
                    <g transform="translate(-46223.977 -46114.953)">
                        <g class="c">
                            <g class="o" transform="translate(46215.727 46100.723)">
                                <g transform="translate(-46215.727 -46100.723)">
                                    <g class="c">
                                        <g transform="translate(46122.207 46156.98) rotate(-69.03)">
                                            <path class="p" d="M163.976,0l195.76,510.771L195.76,573.617,0,62.846Z"
                                                  transform="translate(0 0)"/>
                                        </g>
                                    </g>
                                </g>
                                <g transform="translate(-93.519 56.259) rotate(-69.03)">
                                    <path class="q" d="M163.976,0l195.76,510.771L195.76,573.617,0,62.846Z"
                                          transform="translate(0 0)"/>
                                </g>
                            </g>
                        </g>
                    </g>
                </g>
            </g>
        </g>
    </g>
</svg>
